<?xml version="1.0" encoding="iso-8859-1"?>
<!-- Generator: Adobe Illustrator 19.0.0, SVG Export Plug-In . SVG Version: 6.00 Build 0)  -->
<svg version="1.1" id="Layer_1" xmlns="http://www.w3.org/2000/svg" xmlns:xlink="http://www.w3.org/1999/xlink" x="0px" y="0px"
	 viewBox="0 0 503.323 503.323" style="enable-background:new 0 0 503.323 503.323;" xml:space="preserve">
<g>
	<path style="fill:#efa3a9;" d="M231.587,186.579c-37.688,0-63.462,20.393-75.385,50.549
		c-11.915-30.156-37.688-50.549-75.377-50.549c-80.766,0-107.694,96.273-49.898,160.056c15.455,17.052,75.62,78.353,106.696,109.915
		c10.127,10.292,27.041,10.292,37.168,0c31.076-31.562,91.24-92.863,106.696-109.915
		C339.28,282.852,312.352,186.579,231.587,186.579"/>
	<path style="fill:#ff125f;" d="M400.053,39.053c-48.163,0-81.096,28.741-96.325,69.424c-15.221-40.682-48.154-69.424-96.317-69.424
		c-79.655,0-118.263,77.381-97.809,152.264c22.19,7.628,38.036,24.116,46.601,45.802c11.915-30.147,37.697-50.54,75.385-50.54
		c80.766,0,107.694,96.273,49.89,160.056c-5.111,5.649-15.178,16.193-27.414,28.854c14.779,15.898,27.943,30.026,37.02,39.745
		c6.977,7.463,18.319,7.463,25.288,0c34.156-36.595,125.631-134.812,147.43-160.213C537.651,168.954,503.26,39.053,400.053,39.053"
		/>
	<path style="fill:#efa3a9;" d="M460.426,117.155c-3.28,0-6.43-1.874-7.888-5.059c-9.051-19.673-26.702-29.653-52.484-29.653
		c-4.79,0-8.678-3.888-8.678-8.678s3.888-8.678,8.678-8.678c41.307,0,59.913,21.625,68.252,39.771
		c2.005,4.348,0.095,9.502-4.261,11.507C462.874,116.903,461.641,117.155,460.426,117.155"/>
</g>
<g>
</g>
<g>
</g>
<g>
</g>
<g>
</g>
<g>
</g>
<g>
</g>
<g>
</g>
<g>
</g>
<g>
</g>
<g>
</g>
<g>
</g>
<g>
</g>
<g>
</g>
<g>
</g>
<g>
</g>
</svg>
